name ./resultDataOpenSim/trcMotMarkerGrf/sub09/grf-04-06.mot
datacolumns 19
datarows 15
range 1.01200000 1.06800000
endheader

                time	     ground_force_vx	     ground_force_vy	     ground_force_vz	     ground_force_px	     ground_force_py	     ground_force_pz	   l_ground_force_vx	   l_ground_force_vy	   l_ground_force_vz	   l_ground_force_px	   l_ground_force_py	   l_ground_force_pz	     ground_torque_x	     ground_torque_y	     ground_torque_z	   l_ground_torque_x	   l_ground_torque_y	   l_ground_torque_z	
          1.01200000	          0.00000000	          0.00000000	          0.00000000	          0.00000000	          0.00000000	          0.00000000	         10.68811261	        432.55861481	         10.95633613	          0.22800655	         -0.07500000	          0.00530635	          0.00000000	          0.00000000	          0.00000000	          0.00000000	         -3.44877596	          0.00000000	
          1.01600000	          0.00000000	          0.00000000	          0.00000000	          0.00000000	          0.00000000	          0.00000000	         14.86692304	        438.19553963	         10.53198835	          0.22856123	         -0.07500000	          0.00561927	          0.00000000	          0.00000000	          0.00000000	          0.00000000	         -3.74643852	          0.00000000	
          1.02000000	          0.00000000	          0.00000000	          0.00000000	          0.00000000	          0.00000000	          0.00000000	         19.54350623	        444.56721565	         10.15751474	          0.22913334	         -0.07500000	          0.00591517	          0.00000000	          0.00000000	          0.00000000	          0.00000000	         -4.05243079	          0.00000000	
          1.02400000	          0.00000000	          0.00000000	          0.00000000	          0.00000000	          0.00000000	          0.00000000	         24.60819544	        451.68261668	          9.88686037	          0.22968582	         -0.07500000	          0.00618802	          0.00000000	          0.00000000	          0.00000000	          0.00000000	         -4.35415848	          0.00000000	
          1.02800000	          0.00000000	          0.00000000	          0.00000000	          0.00000000	          0.00000000	          0.00000000	         29.93213854	        459.55078626	          9.74195609	          0.23018070	         -0.07500000	          0.00642001	          0.00000000	          0.00000000	          0.00000000	          0.00000000	         -4.64040021	          0.00000000	
          1.03200000	          0.00000000	          0.00000000	          0.00000000	          0.00000000	          0.00000000	          0.00000000	         35.38460571	        468.20107100	          9.71957436	          0.23059316	         -0.07500000	          0.00659722	          0.00000000	          0.00000000	          0.00000000	          0.00000000	         -4.90247491	          0.00000000	
          1.03600000	          0.00000000	          0.00000000	          0.00000000	          0.00000000	          0.00000000	          0.00000000	         40.84482309	        477.68354684	          9.81358925	          0.23092122	         -0.07500000	          0.00671673	          0.00000000	          0.00000000	          0.00000000	          0.00000000	         -5.13473970	          0.00000000	
          1.04000000	          0.00000000	          0.00000000	          0.00000000	          0.00000000	          0.00000000	          0.00000000	         46.20471065	        488.04725426	         10.02024600	          0.23115773	         -0.07500000	          0.00679030	          0.00000000	          0.00000000	          0.00000000	          0.00000000	         -5.33462652	          0.00000000	
          1.04400000	          0.00000000	          0.00000000	          0.00000000	          0.00000000	          0.00000000	          0.00000000	         51.37762803	        499.33447517	         10.32688939	          0.23129110	         -0.07500000	          0.00683657	          0.00000000	          0.00000000	          0.00000000	          0.00000000	         -5.50231216	          0.00000000	
          1.04800000	          0.00000000	          0.00000000	          0.00000000	          0.00000000	          0.00000000	          0.00000000	         56.31245041	        511.57557680	         10.70641950	          0.23131529	         -0.07500000	          0.00686356	          0.00000000	          0.00000000	          0.00000000	          0.00000000	         -5.63998902	          0.00000000	
          1.05200000	          0.00000000	          0.00000000	          0.00000000	          0.00000000	          0.00000000	          0.00000000	         60.98887064	        524.75489732	         11.12190086	          0.23124364	         -0.07500000	          0.00687171	          0.00000000	          0.00000000	          0.00000000	          0.00000000	         -5.75078004	          0.00000000	
          1.05600000	          0.00000000	          0.00000000	          0.00000000	          0.00000000	          0.00000000	          0.00000000	         65.40076261	        538.77374156	         11.54080310	          0.23110766	         -0.07500000	          0.00686243	          0.00000000	          0.00000000	          0.00000000	          0.00000000	         -5.83757887	          0.00000000	
          1.06000000	          0.00000000	          0.00000000	          0.00000000	          0.00000000	          0.00000000	          0.00000000	         69.56089915	        553.47773040	         11.95437161	          0.23095011	         -0.07500000	          0.00684537	          0.00000000	          0.00000000	          0.00000000	          0.00000000	         -5.90226193	          0.00000000	
          1.06400000	          0.00000000	          0.00000000	          0.00000000	          0.00000000	          0.00000000	          0.00000000	         73.51466704	        568.72256850	         12.37949510	          0.23082797	         -0.07500000	          0.00684199	          0.00000000	          0.00000000	          0.00000000	          0.00000000	         -5.94557494	          0.00000000	
          1.06800000	          0.00000000	          0.00000000	          0.00000000	          0.00000000	          0.00000000	          0.00000000	         77.33118221	        584.37009736	         12.83682671	          0.23079711	         -0.07500000	          0.00687247	          0.00000000	          0.00000000	          0.00000000	          0.00000000	         -5.96756472	          0.00000000	
